<mxfile host="app.diagrams.net" agent="Mozilla/5.0 (Windows NT 10.0; Win64; x64) AppleWebKit/537.36 (KHTML, like Gecko) Chrome/129.0.0.0 Safari/537.36 Edg/129.0.0.0" version="24.7.17">
  <diagram name="PÃ¡gina-1" id="waPO1kq3QlWjMx1Y0VPi">
    <mxGraphModel dx="679" dy="372" grid="1" gridSize="10" guides="1" tooltips="1" connect="1" arrows="1" fold="1" page="1" pageScale="1" pageWidth="827" pageHeight="1169" math="0" shadow="0">
      <root>
        <mxCell id="0" />
        <mxCell id="1" parent="0" />
        <mxCell id="yPaLD0tJLYwgJK4DR0jY-1" value="&lt;i&gt;&lt;font style=&quot;font-size: 7px;&quot;&gt;Target host = Remote host&lt;/font&gt;&lt;/i&gt;" style="image;points=[];aspect=fixed;html=1;align=center;shadow=0;dashed=0;image=img/lib/allied_telesis/computer_and_terminals/Server_Desktop.svg;" vertex="1" parent="1">
          <mxGeometry x="257.4" y="535" width="42.599999999999994" height="54" as="geometry" />
        </mxCell>
        <mxCell id="yPaLD0tJLYwgJK4DR0jY-2" value="9119" style="rounded=0;whiteSpace=wrap;html=1;" vertex="1" parent="1">
          <mxGeometry x="300" y="550" width="40" height="20" as="geometry" />
        </mxCell>
        <mxCell id="yPaLD0tJLYwgJK4DR0jY-3" style="edgeStyle=orthogonalEdgeStyle;rounded=0;orthogonalLoop=1;jettySize=auto;html=1;exitX=1;exitY=0.5;exitDx=0;exitDy=0;entryX=1;entryY=0.5;entryDx=0;entryDy=0;fillColor=#f8cecc;strokeColor=#b85450;" edge="1" parent="1" target="yPaLD0tJLYwgJK4DR0jY-2">
          <mxGeometry relative="1" as="geometry">
            <mxPoint x="566.8399999999999" y="559.86" as="sourcePoint" />
          </mxGeometry>
        </mxCell>
        <mxCell id="yPaLD0tJLYwgJK4DR0jY-4" value="8080" style="rounded=0;whiteSpace=wrap;html=1;" vertex="1" parent="1">
          <mxGeometry x="570" y="550" width="40" height="20" as="geometry" />
        </mxCell>
        <mxCell id="yPaLD0tJLYwgJK4DR0jY-5" value="&lt;i style=&quot;font-size: 8px;&quot;&gt;localhost&lt;/i&gt;" style="sketch=0;aspect=fixed;pointerEvents=1;shadow=0;dashed=0;html=1;strokeColor=none;labelPosition=center;verticalLabelPosition=bottom;verticalAlign=top;align=center;fillColor=#00188D;shape=mxgraph.mscae.enterprise.workstation_client" vertex="1" parent="1">
          <mxGeometry x="610" y="535" width="50" height="50" as="geometry" />
        </mxCell>
        <mxCell id="yPaLD0tJLYwgJK4DR0jY-7" value="Request to 127.0.0.1:8080" style="edgeStyle=orthogonalEdgeStyle;rounded=0;orthogonalLoop=1;jettySize=auto;html=1;entryX=0.48;entryY=0.01;entryDx=0;entryDy=0;entryPerimeter=0;curved=1;fillColor=#f8cecc;strokeColor=#b85450;fontSize=7;" edge="1" parent="1" target="yPaLD0tJLYwgJK4DR0jY-5">
          <mxGeometry relative="1" as="geometry">
            <mxPoint x="680" y="545" as="targetPoint" />
            <Array as="points">
              <mxPoint x="680" y="566" />
              <mxPoint x="680" y="510" />
              <mxPoint x="635" y="510" />
              <mxPoint x="635" y="530" />
              <mxPoint x="634" y="530" />
            </Array>
            <mxPoint x="660" y="566" as="sourcePoint" />
          </mxGeometry>
        </mxCell>
      </root>
    </mxGraphModel>
  </diagram>
</mxfile>
